# xmcd
#
# Track frame offsets: 
#        150
#        13458
#        30531
#        50199
#        68167
#        87977
#        100344
#        119134
#        135036
#        149974
#        163351
#        173984
#        188291
#
# Disc length: 2773 seconds
#
# Revision: 0
# Processed by: cddbd v1.5.2PL0 Copyright (c) Steve Scherf et al.
# Submitted via: ExactAudioCopy v0.95b4
#
DISCID=c20ad30d
DTITLE=Chris Joss - Teraphonic Overdubs
DYEAR=2008
DGENRE=A Cappella
TTITLE0=1   Magic Tubes
TTITLE1=2   I Want Freedom
TTITLE2=3   Count The Daisies
TTITLE3=4   Get With It
TTITLE4=5   Jungle Dolls
TTITLE5=6   Fatality Strikes
TTITLE6=7   Atomic Tape
TTITLE7=8   Slack The Slammer
TTITLE8=9   Summer Springs
TTITLE9=10   Luna Rides Back
TTITLE10=11   A Room With A Vu Meter
TTITLE11=12   Surgelator Action
TTITLE12=13   Granted
EXTD=
EXTT0=
EXTT1=
EXTT2=
EXTT3=
EXTT4=
EXTT5=
EXTT6=
EXTT7=
EXTT8=
EXTT9=
EXTT10=
EXTT11=
EXTT12=
PLAYORDER=
